<svg width="255" height="71" viewBox="0 0 255 71" fill="none" xmlns="http://www.w3.org/2000/svg">
<path d="M28.4182 17.1383C26.053 17.4812 23.6861 17.6518 21.3209 17.781C18.9556 17.9101 16.5888 17.9562 14.2235 17.9577C11.8583 17.9593 9.49143 17.9024 7.12458 17.7825C4.75772 17.6626 2.39408 17.475 0.0272217 17.1383C2.39408 16.794 4.75933 16.6233 7.12458 16.4942C9.48983 16.3651 11.8567 16.3189 14.2235 16.3205C16.5904 16.322 18.954 16.3774 21.3209 16.4973C23.6877 16.6172 26.053 16.797 28.4182 17.1383Z" fill="white"/>
<path d="M254.928 17.3213C252.561 17.6625 250.196 17.8347 247.831 17.9623C245.465 18.0899 243.095 18.1407 240.732 18.1407C238.368 18.1407 236.001 18.0869 233.634 17.9669C231.267 17.847 228.902 17.6595 226.537 17.3228C228.902 16.9784 231.269 16.8062 233.634 16.6786C235.999 16.551 238.366 16.5019 240.732 16.5034C243.097 16.5049 245.464 16.5603 247.831 16.6802C250.197 16.8001 252.561 16.9784 254.928 17.3213Z" fill="white"/>
<path d="M53.4986 20.5251H54.3319V28.0581H34.7336V27.2648H36.8169V6.6567H34.7336V5.86343H45.576V6.6567H43.0729V27.2571H47.2394C48.0297 27.2708 48.8193 27.2044 49.595 27.0588C50.2891 26.8983 50.9465 26.6164 51.534 26.2271C52.8437 25.4113 53.4986 23.5106 53.4986 20.5251Z" fill="#1D1D1C"/>
<path d="M59.503 5.62668L57.9599 5.86343C57.2469 5.8676 56.5571 5.62093 56.0209 5.17009C55.4504 4.70889 55.1651 4.03553 55.1651 3.15002C55.1553 2.73681 55.2318 2.3259 55.39 1.94148C55.5483 1.55706 55.7851 1.2069 56.0866 0.911643C56.6955 0.303879 57.5502 -3.03006e-06 58.6505 -3.03006e-06C59.1661 -0.0106507 59.6776 0.0907159 60.1465 0.29651C60.6155 0.502304 61.0299 0.807196 61.3587 1.18837C62.067 1.98164 62.4211 3.00653 62.4211 4.26306C62.4211 5.51958 61.9121 6.76637 60.894 8.00342C59.8791 9.24559 58.4267 10.2761 56.5369 11.095L56.2468 10.4201C58.8588 9.04779 60.1654 7.6611 60.1665 6.26007C60.1697 5.84191 59.9469 5.62668 59.503 5.62668Z" fill="#1D1D1C"/>
<path d="M89.4004 27.2602V28.0534H78.4331V27.2602H80.8945L78.0998 21.7534H69.6772L67.2574 27.2602H70.5521V28.0534H63.4227V27.2602H66.2158L75.765 5.46829H76.8066L87.3989 27.2602H89.4004ZM70.0522 20.9202H77.6831L73.5968 12.8383L70.0522 20.9202Z" fill="#1D1D1C"/>
<path d="M111.875 12.6062C111.875 10.2561 111.465 8.6778 110.646 7.87121C109.827 7.06461 108.29 6.65978 106.037 6.6567H104.787V27.2571H107.705V28.0504H95.6131V27.2571H98.5312V6.6567H97.2813C95.0571 6.6567 93.5347 7.05949 92.7143 7.86506C91.8938 8.67063 91.4841 10.251 91.4852 12.6062H90.6503V5.86343H112.71V12.6062H111.875Z" fill="#1D1D1C"/>
<path d="M127.717 27.2602C131.883 27.2602 133.967 25.0152 133.967 20.5251H134.802V28.0581H115.218V27.2648H117.301V6.6567H115.218V5.86343H134.391V12.6062H133.558C133.558 10.2561 133.065 8.6778 132.077 7.87121C131.09 7.06461 129.499 6.65978 127.304 6.6567H123.551V16.1667H125.219C127.221 16.1667 128.486 15.929 129.013 15.4534C129.541 14.9778 129.803 14.0288 129.8 12.6062H130.635V20.5313H129.8C129.8 19.0523 129.536 18.0879 129.009 17.638C128.481 17.188 127.216 16.9636 125.214 16.9646H123.551V27.2648L127.717 27.2602Z" fill="#1D1D1C"/>
<path d="M156.701 20.5251H157.534V28.0581H137.936V27.2648H140.019V6.6567H137.936V5.86343H148.778V6.6567H146.277V27.2571H150.443C151.234 27.2708 152.023 27.2044 152.799 27.0588C153.493 26.8983 154.151 26.6164 154.738 26.2271C156.047 25.4113 156.701 23.5106 156.701 20.5251Z" fill="#1D1D1C"/>
<path d="M170.045 28.0535H159.619V27.2602H161.702V6.6567H159.619V5.86343H170.045V6.6567H167.962V27.2571H170.045V28.0535Z" fill="#1D1D1C"/>
<path d="M185.887 27.2602C190.053 27.2602 192.137 25.0152 192.137 20.5251H192.97V28.0581H173.388V27.2648H175.471V6.6567H173.388V5.86343H192.569V12.6062H191.734C191.734 10.2561 191.241 8.6778 190.255 7.87121C189.269 7.06461 187.677 6.66183 185.48 6.66285H181.72V16.1729H183.389C185.391 16.1729 186.656 15.9351 187.183 15.4595C187.711 14.984 187.973 14.0329 187.97 12.6062H188.805V20.5313H187.97C187.97 19.0523 187.706 18.0879 187.178 17.638C186.651 17.188 185.386 16.9636 183.384 16.9646H181.72V27.2648L185.887 27.2602Z" fill="#1D1D1C"/>
<path d="M220.415 28.4486H218.577C215.101 28.4486 212.682 27.7358 211.321 26.3101C210.238 25.2002 209.502 23.7341 209.112 21.9118C208.945 21.1462 208.764 20.4462 208.57 19.8118C208.127 18.3902 207.224 17.6795 205.863 17.6795H204.029V27.2679H206.112V28.0612H195.686V27.2679H197.769V6.6567H195.686V5.86343H206.653C213.743 5.86343 217.287 7.83175 217.286 11.7684C217.286 13.3272 216.688 14.595 215.493 15.5718C214.297 16.5485 212.768 17.0374 210.906 17.0384V17.3151C213.684 17.3151 215.616 19.0575 216.702 22.5421C217.258 24.3869 217.821 25.7013 218.391 26.4854C218.962 27.2694 219.636 27.6589 220.414 27.6538L220.415 28.4486ZM204.029 6.6567V16.8785C206.806 16.8785 208.668 16.4957 209.615 15.7301C210.561 14.9645 211.034 13.6834 211.033 11.8868C211.033 10.0911 210.546 8.77056 209.573 7.92501C208.6 7.07947 206.752 6.6567 204.029 6.6567Z" fill="#1D1D1C"/>
<path d="M13.7717 70.2075H0V69.1606H2.75465V41.9403H0V40.8934H13.7717C16.4895 40.8934 18.9412 41.3208 21.127 42.1755C23.3128 43.0303 25.0846 44.1577 26.4424 45.5577C29.1965 48.454 30.5736 51.7337 30.5736 55.3967C30.5736 60.3521 29.1965 64.0596 26.4424 66.5194C23.6883 68.9791 19.4647 70.2085 13.7717 70.2075ZM11.017 69.1606C14.9847 69.1606 17.8494 68.1398 19.6111 66.0982C21.3727 64.0566 22.2541 60.7256 22.2552 56.1054C22.2552 51.4811 21.3006 47.9652 19.3915 45.5577C17.4825 43.1502 14.6909 41.9459 11.017 41.9449V69.1606Z" fill="#1D1D1C"/>
<path d="M61.6952 57.4352C61.6952 66.4728 57.6922 70.992 49.6863 70.9931C45.241 70.9931 41.769 69.9113 39.2702 67.7477C36.7714 65.5842 35.5252 62.3209 35.5316 57.9579V41.9403H32.777V40.8934H47.0999V41.9403H44.3452V58.5344C44.3452 65.8276 46.9161 69.4742 52.0579 69.4742C54.1508 69.4742 56.0513 68.4882 57.7595 66.5163C59.4678 64.5444 60.3224 61.8664 60.3235 58.4821V41.9403H55.9696V40.8934H64.4531V41.9403H61.6952V57.4352Z" fill="#1D1D1C"/>
<path d="M92.8233 70.2075H79.05V69.1606H81.8047V41.9403H79.05V40.8934H92.8233C95.54 40.8934 97.9913 41.3208 100.177 42.1755C102.363 43.0303 104.135 44.1577 105.492 45.5577C108.248 48.454 109.625 51.7337 109.625 55.3967C109.625 60.3521 108.248 64.0596 105.492 66.5194C102.737 68.9791 98.5142 70.2085 92.8233 70.2075ZM90.0687 69.1606C94.0353 69.1606 96.9 68.1398 98.6627 66.0982C100.425 64.0566 101.307 60.7256 101.307 56.1054C101.307 51.4811 100.352 47.9652 98.4416 45.5577C96.5314 43.1502 93.7405 41.9459 90.0687 41.9449V69.1606Z" fill="#1D1D1C"/>
<path d="M129.456 69.1606C134.965 69.1606 137.72 66.1945 137.72 60.2624H138.821V70.2075H112.929V69.1606H115.684V41.9403H112.929V40.8934H138.269V49.7931H137.172C137.172 46.6876 136.519 44.6025 135.215 43.5376C133.911 42.4727 131.808 41.9403 128.908 41.9403H123.946V54.5035H126.15C128.794 54.5035 130.465 54.1894 131.164 53.5611C131.863 52.9328 132.209 51.6768 132.204 49.7931H133.305V60.2639H132.204C132.204 58.3084 131.855 57.0345 131.158 56.4421C130.46 55.8497 128.789 55.553 126.143 55.552H123.946V69.1621L129.456 69.1606Z" fill="#1D1D1C"/>
<path d="M145.155 70.2075H144.062V58.0102H145.163C145.163 61.2899 146.403 64.0817 148.883 66.3857C151.362 68.6896 154.383 69.8416 157.945 69.8416C159.413 69.8416 160.597 69.4317 161.497 68.6117C162.398 67.7918 162.848 66.7013 162.847 65.3403C162.847 63.8029 161.8 62.4946 159.707 61.4154C158.568 60.8579 156.603 59.9765 153.814 58.7712C151.024 57.5659 149.056 56.5446 147.908 55.7073C145.633 54.0305 144.633 51.8147 144.909 49.0598C145.184 46.3049 146.277 44.1674 148.186 42.6475C150.096 41.1286 152.253 40.3697 154.658 40.3707C157.063 40.3717 159.23 40.6792 161.159 41.2931C163.082 41.908 164.175 42.2129 164.436 42.2078C165.171 42.2078 165.539 41.5975 165.539 40.3768H166.64V49.956H165.536C165.536 47.442 164.562 45.3922 162.616 43.8067C160.669 42.2212 158.172 41.4274 155.124 41.4253C153.763 41.4253 152.698 41.8004 151.929 42.5507C151.16 43.3009 150.774 44.1295 150.772 45.0365C150.772 45.9451 150.9 46.6415 151.157 47.1304C151.413 47.6193 151.863 48.0651 152.508 48.4648C153.152 48.8645 153.709 49.1904 154.187 49.4333C154.664 49.6762 155.427 50.0099 156.474 50.428C157.52 50.8462 158.236 51.1444 158.65 51.3181C160.669 52.1913 161.862 52.7064 162.23 52.8632C162.597 53.02 163.131 53.2726 163.832 53.6211C164.387 53.8839 164.913 54.1996 165.403 54.5635C165.75 54.8433 166.2 55.1922 166.752 55.6104C167.238 55.9592 167.649 56.3945 167.963 56.8926C168.221 57.3292 168.478 57.8267 168.736 58.3853C169.248 59.5014 169.432 60.8097 169.285 62.3102C168.992 65.1368 167.881 67.2922 165.954 68.7762C164.027 70.2603 161.43 70.9992 158.164 70.9931C155.225 70.9931 152.306 70.2757 149.405 68.8408C148.415 68.3519 147.68 68.1075 147.202 68.1075C145.838 68.1116 145.155 68.8116 145.155 70.2075Z" fill="#1D1D1C"/>
<path d="M187.464 70.2075H173.692V69.1606H176.445V41.9403H173.692V40.8934H187.464V41.9403H184.709V69.1606H187.464V70.2075Z" fill="#1D1D1C"/>
<path d="M217.706 68.192C217.483 67.9308 217.201 67.7219 216.881 67.5812C216.562 67.4406 216.213 67.3718 215.861 67.3803C215.113 67.3803 214.342 67.677 213.547 68.2704C212.667 68.9237 211.747 69.5269 210.793 70.0768C209.746 70.6918 208.488 70.9992 207.019 70.9992C202.024 70.9992 198.159 69.7776 195.423 67.3342C192.687 64.8908 191.319 61.1397 191.319 56.0808C191.319 45.507 196.516 40.22 206.908 40.22C208.781 40.22 210.7 40.6561 212.666 41.5283C214.632 42.4005 215.834 42.8366 216.275 42.8366C216.715 42.8366 217.076 42.6198 217.376 42.1817C217.65 41.8046 217.803 41.359 217.816 40.8995H218.863V51.5257H217.762C217.762 48.8743 216.669 46.5016 214.483 44.4078C212.297 42.3139 209.772 41.267 206.908 41.267C204.705 41.267 203.034 42.3944 201.896 44.6491C200.757 46.9039 200.188 50.6202 200.189 55.798C200.189 60.9798 200.767 64.6356 201.923 66.7654C203.079 68.8951 204.777 69.9595 207.019 69.9584C210.544 69.9584 212.307 66.9745 212.307 61.0065V57.1216H208.838V56.0747H222.058V57.1216H219.468V70.2075H218.417C218.444 69.475 218.191 68.7584 217.706 68.192Z" fill="#1D1D1C"/>
<path d="M228.673 69.1606H233.08V70.2075H224.266V69.1606H227.57V44.2433C226.395 42.7059 225.294 41.9372 224.266 41.9372V40.8934H234.567L250.047 58.3253V41.9403H245.64V40.8934H255.005V41.9403H251.149V70.7302H250.047L228.673 45.5531V69.1606Z" fill="#1D1D1C"/>
<path d="M53.4986 20.5251H54.3319V28.0581H34.7336V27.2648H36.8169V6.6567H34.7336V5.86343H45.576V6.6567H43.0729V27.2571H47.2394C48.0297 27.2708 48.8193 27.2044 49.595 27.0588C50.2891 26.8983 50.9465 26.6164 51.534 26.2271C52.8437 25.4113 53.4986 23.5106 53.4986 20.5251Z" fill="white"/>
<path d="M59.503 5.62668L57.9599 5.86343C57.2469 5.8676 56.5571 5.62093 56.0209 5.17009C55.4504 4.70889 55.1651 4.03553 55.1651 3.15002C55.1553 2.73681 55.2318 2.3259 55.39 1.94148C55.5483 1.55706 55.7851 1.2069 56.0866 0.911643C56.6955 0.303879 57.5502 -3.03006e-06 58.6505 -3.03006e-06C59.1661 -0.0106507 59.6776 0.0907159 60.1465 0.29651C60.6155 0.502304 61.0299 0.807196 61.3587 1.18837C62.067 1.98164 62.4211 3.00653 62.4211 4.26306C62.4211 5.51958 61.9121 6.76637 60.894 8.00342C59.8791 9.24559 58.4267 10.2761 56.5369 11.095L56.2468 10.4201C58.8588 9.04779 60.1654 7.6611 60.1665 6.26007C60.1697 5.84191 59.9469 5.62668 59.503 5.62668Z" fill="white"/>
<path d="M89.4004 27.2602V28.0534H78.4331V27.2602H80.8945L78.0998 21.7534H69.6772L67.2574 27.2602H70.5521V28.0534H63.4227V27.2602H66.2158L75.765 5.46829H76.8066L87.3989 27.2602H89.4004ZM70.0522 20.9202H77.6831L73.5968 12.8383L70.0522 20.9202Z" fill="white"/>
<path d="M111.875 12.6062C111.875 10.2561 111.465 8.6778 110.646 7.87121C109.827 7.06461 108.29 6.65978 106.037 6.6567H104.787V27.2571H107.705V28.0504H95.6131V27.2571H98.5312V6.6567H97.2813C95.0571 6.6567 93.5347 7.05949 92.7143 7.86506C91.8938 8.67063 91.4841 10.251 91.4852 12.6062H90.6503V5.86343H112.71V12.6062H111.875Z" fill="white"/>
<path d="M127.717 27.2602C131.883 27.2602 133.967 25.0152 133.967 20.5251H134.802V28.0581H115.218V27.2648H117.301V6.6567H115.218V5.86343H134.391V12.6062H133.558C133.558 10.2561 133.065 8.6778 132.077 7.87121C131.09 7.06461 129.499 6.65978 127.304 6.6567H123.551V16.1667H125.219C127.221 16.1667 128.486 15.929 129.013 15.4534C129.541 14.9778 129.803 14.0288 129.8 12.6062H130.635V20.5313H129.8C129.8 19.0523 129.536 18.0879 129.009 17.638C128.481 17.188 127.216 16.9636 125.214 16.9646H123.551V27.2648L127.717 27.2602Z" fill="white"/>
<path d="M156.701 20.5251H157.534V28.0581H137.936V27.2648H140.019V6.6567H137.936V5.86343H148.778V6.6567H146.277V27.2571H150.443C151.234 27.2708 152.023 27.2044 152.799 27.0588C153.493 26.8983 154.151 26.6164 154.738 26.2271C156.047 25.4113 156.701 23.5106 156.701 20.5251Z" fill="white"/>
<path d="M170.045 28.0535H159.619V27.2602H161.702V6.6567H159.619V5.86343H170.045V6.6567H167.962V27.2571H170.045V28.0535Z" fill="white"/>
<path d="M185.887 27.2602C190.053 27.2602 192.137 25.0152 192.137 20.5251H192.97V28.0581H173.388V27.2648H175.471V6.6567H173.388V5.86343H192.569V12.6062H191.734C191.734 10.2561 191.241 8.6778 190.255 7.87121C189.269 7.06461 187.677 6.66183 185.48 6.66285H181.72V16.1729H183.389C185.391 16.1729 186.656 15.9351 187.183 15.4595C187.711 14.984 187.973 14.0329 187.97 12.6062H188.805V20.5313H187.97C187.97 19.0523 187.706 18.0879 187.178 17.638C186.651 17.188 185.386 16.9636 183.384 16.9646H181.72V27.2648L185.887 27.2602Z" fill="white"/>
<path d="M220.415 28.4486H218.577C215.101 28.4486 212.682 27.7358 211.321 26.3101C210.238 25.2002 209.502 23.7341 209.112 21.9118C208.945 21.1462 208.764 20.4462 208.57 19.8118C208.127 18.3902 207.224 17.6795 205.863 17.6795H204.029V27.2679H206.112V28.0612H195.686V27.2679H197.769V6.6567H195.686V5.86343H206.653C213.743 5.86343 217.287 7.83175 217.286 11.7684C217.286 13.3272 216.688 14.595 215.493 15.5718C214.297 16.5485 212.768 17.0374 210.906 17.0384V17.3151C213.684 17.3151 215.616 19.0575 216.702 22.5421C217.258 24.3869 217.821 25.7013 218.391 26.4854C218.962 27.2694 219.636 27.6589 220.414 27.6538L220.415 28.4486ZM204.029 6.6567V16.8785C206.806 16.8785 208.668 16.4957 209.615 15.7301C210.561 14.9645 211.034 13.6834 211.033 11.8868C211.033 10.0911 210.546 8.77056 209.573 7.92501C208.6 7.07947 206.752 6.6567 204.029 6.6567Z" fill="white"/>
<path d="M13.7717 70.2075H0V69.1606H2.75465V41.9403H0V40.8934H13.7717C16.4895 40.8934 18.9412 41.3208 21.127 42.1755C23.3128 43.0303 25.0846 44.1577 26.4424 45.5577C29.1965 48.454 30.5736 51.7337 30.5736 55.3967C30.5736 60.3521 29.1965 64.0596 26.4424 66.5194C23.6883 68.9791 19.4647 70.2085 13.7717 70.2075ZM11.017 69.1606C14.9847 69.1606 17.8494 68.1398 19.6111 66.0982C21.3727 64.0566 22.2541 60.7256 22.2552 56.1054C22.2552 51.4811 21.3006 47.9652 19.3915 45.5577C17.4825 43.1502 14.6909 41.9459 11.017 41.9449V69.1606Z" fill="white"/>
<path d="M61.6952 57.4352C61.6952 66.4728 57.6922 70.992 49.6863 70.9931C45.241 70.9931 41.769 69.9113 39.2702 67.7477C36.7714 65.5842 35.5252 62.3209 35.5316 57.9579V41.9403H32.777V40.8934H47.0999V41.9403H44.3452V58.5344C44.3452 65.8276 46.9161 69.4742 52.0579 69.4742C54.1508 69.4742 56.0513 68.4882 57.7595 66.5163C59.4678 64.5444 60.3224 61.8664 60.3235 58.4821V41.9403H55.9696V40.8934H64.4531V41.9403H61.6952V57.4352Z" fill="white"/>
<path d="M92.8233 70.2075H79.05V69.1606H81.8047V41.9403H79.05V40.8934H92.8233C95.54 40.8934 97.9913 41.3208 100.177 42.1755C102.363 43.0303 104.135 44.1577 105.492 45.5577C108.248 48.454 109.625 51.7337 109.625 55.3967C109.625 60.3521 108.248 64.0596 105.492 66.5194C102.737 68.9791 98.5142 70.2085 92.8233 70.2075ZM90.0687 69.1606C94.0353 69.1606 96.9 68.1398 98.6627 66.0982C100.425 64.0566 101.307 60.7256 101.307 56.1054C101.307 51.4811 100.352 47.9652 98.4416 45.5577C96.5314 43.1502 93.7405 41.9459 90.0687 41.9449V69.1606Z" fill="white"/>
<path d="M129.456 69.1606C134.965 69.1606 137.72 66.1945 137.72 60.2624H138.821V70.2075H112.929V69.1606H115.684V41.9403H112.929V40.8934H138.269V49.7931H137.172C137.172 46.6876 136.519 44.6025 135.215 43.5376C133.911 42.4727 131.808 41.9403 128.908 41.9403H123.946V54.5035H126.15C128.794 54.5035 130.465 54.1894 131.164 53.5611C131.863 52.9328 132.209 51.6768 132.204 49.7931H133.305V60.2639H132.204C132.204 58.3084 131.855 57.0345 131.158 56.4421C130.46 55.8497 128.789 55.553 126.143 55.552H123.946V69.1621L129.456 69.1606Z" fill="white"/>
<path d="M145.155 70.2075H144.062V58.0102H145.163C145.163 61.2899 146.403 64.0817 148.883 66.3857C151.362 68.6896 154.383 69.8416 157.945 69.8416C159.413 69.8416 160.597 69.4317 161.497 68.6117C162.398 67.7918 162.848 66.7013 162.847 65.3403C162.847 63.8029 161.8 62.4946 159.707 61.4154C158.568 60.8579 156.603 59.9765 153.814 58.7712C151.024 57.5659 149.056 56.5446 147.908 55.7073C145.633 54.0305 144.633 51.8147 144.909 49.0598C145.184 46.3049 146.277 44.1674 148.186 42.6475C150.096 41.1286 152.253 40.3697 154.658 40.3707C157.063 40.3717 159.23 40.6792 161.159 41.2931C163.082 41.908 164.175 42.2129 164.436 42.2078C165.171 42.2078 165.539 41.5975 165.539 40.3768H166.64V49.956H165.536C165.536 47.442 164.562 45.3922 162.616 43.8067C160.669 42.2212 158.172 41.4274 155.124 41.4253C153.763 41.4253 152.698 41.8004 151.929 42.5507C151.16 43.3009 150.774 44.1295 150.772 45.0365C150.772 45.9451 150.9 46.6415 151.157 47.1304C151.413 47.6193 151.863 48.0651 152.508 48.4648C153.152 48.8645 153.709 49.1904 154.187 49.4333C154.664 49.6762 155.427 50.0099 156.474 50.428C157.52 50.8462 158.236 51.1444 158.65 51.3181C160.669 52.1913 161.862 52.7064 162.23 52.8632C162.597 53.02 163.131 53.2726 163.832 53.6211C164.387 53.8839 164.913 54.1996 165.403 54.5635C165.75 54.8433 166.2 55.1922 166.752 55.6104C167.238 55.9592 167.649 56.3945 167.963 56.8926C168.221 57.3292 168.478 57.8267 168.736 58.3853C169.248 59.5014 169.432 60.8097 169.285 62.3102C168.992 65.1368 167.881 67.2922 165.954 68.7762C164.027 70.2603 161.43 70.9992 158.164 70.9931C155.225 70.9931 152.306 70.2757 149.405 68.8408C148.415 68.3519 147.68 68.1075 147.202 68.1075C145.838 68.1116 145.155 68.8116 145.155 70.2075Z" fill="white"/>
<path d="M187.464 70.2075H173.692V69.1606H176.445V41.9403H173.692V40.8934H187.464V41.9403H184.709V69.1606H187.464V70.2075Z" fill="white"/>
<path d="M217.706 68.192C217.483 67.9308 217.201 67.7219 216.881 67.5812C216.562 67.4406 216.213 67.3718 215.861 67.3803C215.113 67.3803 214.342 67.677 213.547 68.2704C212.667 68.9237 211.747 69.5269 210.793 70.0768C209.746 70.6918 208.488 70.9992 207.019 70.9992C202.024 70.9992 198.159 69.7776 195.423 67.3342C192.687 64.8908 191.319 61.1397 191.319 56.0808C191.319 45.507 196.516 40.22 206.908 40.22C208.781 40.22 210.7 40.6561 212.666 41.5283C214.632 42.4005 215.834 42.8366 216.275 42.8366C216.715 42.8366 217.076 42.6198 217.376 42.1817C217.65 41.8046 217.803 41.359 217.816 40.8995H218.863V51.5257H217.762C217.762 48.8743 216.669 46.5016 214.483 44.4078C212.297 42.3139 209.772 41.267 206.908 41.267C204.705 41.267 203.034 42.3944 201.896 44.6491C200.757 46.9039 200.188 50.6202 200.189 55.798C200.189 60.9798 200.767 64.6356 201.923 66.7654C203.079 68.8951 204.777 69.9595 207.019 69.9584C210.544 69.9584 212.307 66.9745 212.307 61.0065V57.1216H208.838V56.0747H222.058V57.1216H219.468V70.2075H218.417C218.444 69.475 218.191 68.7584 217.706 68.192Z" fill="white"/>
<path d="M228.673 69.1606H233.08V70.2075H224.266V69.1606H227.57V44.2433C226.395 42.7059 225.294 41.9372 224.266 41.9372V40.8934H234.567L250.047 58.3253V41.9403H245.64V40.8934H255.005V41.9403H251.149V70.7302H250.047L228.673 45.5531V69.1606Z" fill="white"/>
</svg>
