<svg xmlns="http://www.w3.org/2000/svg" width="50" height="31.407" viewBox="0 0 50 31.407">
  <path id="behance" d="M14.544,9.375a15.421,15.421,0,0,1,3.994.438,8.827,8.827,0,0,1,3.113,1.222,5.109,5.109,0,0,1,2,2.334,8.939,8.939,0,0,1,.675,3.553A6.171,6.171,0,0,1,23.216,20.8,7.929,7.929,0,0,1,20.1,23.357a7.333,7.333,0,0,1,4.213,2.881,9.173,9.173,0,0,1,.55,8.878,7.241,7.241,0,0,1-2.444,2.772,11.337,11.337,0,0,1-3.553,1.55,16.654,16.654,0,0,1-3.994.55L0,40.01V9.375Zm-.891,12.431a4.975,4.975,0,0,0,2.991-.891,3.264,3.264,0,0,0,1.109-2.772,4.222,4.222,0,0,0-.328-1.772,3.066,3.066,0,0,0-1-1.109,5.75,5.75,0,0,0-1.441-.55,9.068,9.068,0,0,0-1.772-.109H6.781v7.219c0-.016,6.875-.016,6.875-.016Zm.328,13.1a10,10,0,0,0,1.894-.219,3.716,3.716,0,0,0,1.55-.675A4.249,4.249,0,0,0,18.538,32.8a5.354,5.354,0,0,0,.438-2,4.275,4.275,0,0,0-1.331-3.444,5.83,5.83,0,0,0-3.553-1H6.781v8.544h7.2v.016ZM35.413,34.8a5.426,5.426,0,0,0,3.994,1.331,6.047,6.047,0,0,0,3.225-.894,4.393,4.393,0,0,0,1.656-2h5.438a10.924,10.924,0,0,1-3.994,5.775,11.839,11.839,0,0,1-6.438,1.769,12.922,12.922,0,0,1-4.772-.891,8.834,8.834,0,0,1-3.553-2.444,8.909,8.909,0,0,1-2.225-3.663,13.2,13.2,0,0,1-.781-4.775,12.73,12.73,0,0,1,.781-4.666,12.085,12.085,0,0,1,2.334-3.772,11.2,11.2,0,0,1,3.553-2.444,12.556,12.556,0,0,1,4.666-.891,10.278,10.278,0,0,1,4.994,1.109,9.113,9.113,0,0,1,3.444,2.994,13.56,13.56,0,0,1,2,4.213,23.634,23.634,0,0,1,.219,4.884H33.863A6.381,6.381,0,0,0,35.413,34.8Zm7-11.663a4.816,4.816,0,0,0-3.447-1.222,5.324,5.324,0,0,0-2.441.55,5.646,5.646,0,0,0-1.55,1.219,2.991,2.991,0,0,0-.781,1.553,7.424,7.424,0,0,0-.219,1.438h9.988a5.925,5.925,0,0,0-1.553-3.538Zm-9.772-11.65H45.073v2.991H32.641Z" transform="translate(0 -9.375)" fill="#7f8289"/>
</svg>
