<svg xmlns="http://www.w3.org/2000/svg" width="50" height="50" viewBox="0 0 50 50">
  <path id="instagram" d="M25,0c-6.784,0-7.637.031-10.3.15A18.421,18.421,0,0,0,8.625,1.313,12.241,12.241,0,0,0,4.2,4.2,12.272,12.272,0,0,0,1.312,8.625,18.312,18.312,0,0,0,.15,14.687C.031,17.359,0,18.209,0,25s.031,7.638.15,10.3a18.417,18.417,0,0,0,1.162,6.069,12.8,12.8,0,0,0,7.309,7.313,18.354,18.354,0,0,0,6.069,1.162c2.669.119,3.519.15,10.309.15s7.638-.031,10.306-.15a18.455,18.455,0,0,0,6.072-1.162,12.8,12.8,0,0,0,7.309-7.312,18.5,18.5,0,0,0,1.162-6.069C49.969,32.641,50,31.791,50,25s-.031-7.641-.15-10.309a18.478,18.478,0,0,0-1.162-6.066A12.269,12.269,0,0,0,45.8,4.2a12.222,12.222,0,0,0-4.428-2.884A18.392,18.392,0,0,0,35.3.15C32.634.031,31.788,0,24.994,0H25ZM22.759,4.506H25c6.675,0,7.466.022,10.1.144a13.854,13.854,0,0,1,4.644.859,7.757,7.757,0,0,1,2.875,1.872,7.724,7.724,0,0,1,1.869,2.875A13.731,13.731,0,0,1,45.35,14.9c.122,2.634.147,3.425.147,10.1s-.025,7.466-.147,10.1a13.831,13.831,0,0,1-.859,4.641,8.286,8.286,0,0,1-4.747,4.741,13.753,13.753,0,0,1-4.641.862c-2.634.119-3.425.147-10.1.147s-7.469-.028-10.1-.147a13.809,13.809,0,0,1-4.641-.862,7.744,7.744,0,0,1-2.875-1.869,7.75,7.75,0,0,1-1.875-2.875,13.812,13.812,0,0,1-.859-4.641c-.119-2.634-.144-3.425-.144-10.1s.025-7.462.144-10.1a13.832,13.832,0,0,1,.863-4.644A7.757,7.757,0,0,1,7.384,7.372,7.724,7.724,0,0,1,10.259,5.5,13.809,13.809,0,0,1,14.9,4.641c2.306-.106,3.2-.138,7.859-.141v.006Zm15.587,4.15a3,3,0,1,0,3,3,3,3,0,0,0-3-3ZM25,12.162A12.84,12.84,0,1,0,37.844,25,12.838,12.838,0,0,0,25,12.162Zm0,4.5A8.334,8.334,0,1,1,16.669,25,8.334,8.334,0,0,1,25,16.666Z" fill="#7f8289"/>
</svg>
