<svg xmlns="http://www.w3.org/2000/svg" width="50" height="50" viewBox="0 0 50 50">
  <path id="linkedin" d="M0,3.581A3.627,3.627,0,0,1,3.672,0H46.328A3.627,3.627,0,0,1,50,3.581V46.419A3.627,3.627,0,0,1,46.328,50H3.672A3.627,3.627,0,0,1,0,46.419ZM15.447,41.856V19.278h-7.5V41.856ZM11.7,16.194a3.912,3.912,0,1,0,.05-7.8,3.911,3.911,0,1,0-.1,7.8ZM27.034,41.856V29.247a5.1,5.1,0,0,1,.25-1.831,4.1,4.1,0,0,1,3.85-2.744c2.716,0,3.8,2.069,3.8,5.106V41.856h7.5V28.906c0-6.937-3.7-10.163-8.638-10.163a7.455,7.455,0,0,0-6.766,3.728v.078h-.05l.05-.078V19.278h-7.5c.094,2.119,0,22.578,0,22.578Z" fill="#7f8289"/>
</svg>
