<svg xmlns="http://www.w3.org/2000/svg" width="50" height="40.628" viewBox="0 0 50 40.628">
  <path id="twitter" d="M15.706,46.875c18.869,0,29.191-15.634,29.191-29.169,0-.437,0-.881-.019-1.319A20.891,20.891,0,0,0,50,11.069a20.806,20.806,0,0,1-5.9,1.619,10.316,10.316,0,0,0,4.522-5.678A20.416,20.416,0,0,1,42.1,9.487a10.269,10.269,0,0,0-17.488,9.356A29.141,29.141,0,0,1,3.462,8.128,10.278,10.278,0,0,0,6.644,21.822,10.384,10.384,0,0,1,2,20.547v.141a10.275,10.275,0,0,0,8.225,10.056,10.009,10.009,0,0,1-2.7.359A10.093,10.093,0,0,1,5.6,30.925a10.259,10.259,0,0,0,9.584,7.116,20.588,20.588,0,0,1-12.75,4.4A19.75,19.75,0,0,1,0,42.3a29.2,29.2,0,0,0,15.706,4.578Z" transform="translate(0 -6.247)" fill="#7f8289"/>
</svg>
