<svg width="173" height="79" viewBox="0 0 173 79" fill="none" xmlns="http://www.w3.org/2000/svg">
<g clip-path="url(#clip0_5_61)">
<path d="M3.68058 11.5H0.780579V0.700012H3.68058V1.50002H1.78058V10.7H3.68058V11.5Z" fill="#C62956"/>
<path d="M10.9806 3.10001L8.48059 9.30001H7.38059L4.98059 3.10001H6.08059L7.98059 8.00001L9.88059 3.10001H10.9806Z" fill="#C62956"/>
<path d="M17.5806 6.19999C17.5806 7.09999 17.3806 7.89999 16.7806 8.59999C16.4806 8.89999 16.1806 9.1 15.8806 9.3C15.4806 9.5 15.0806 9.5 14.7806 9.5C14.3806 9.5 13.9806 9.4 13.6806 9.3C13.2806 9.1 12.9806 8.89999 12.6806 8.59999C12.1806 7.89999 11.8806 7.09999 11.8806 6.19999C11.8806 5.29999 12.0806 4.5 12.6806 3.8C12.9806 3.5 13.2806 3.29999 13.6806 3.09999C14.0806 2.89999 14.4806 2.89999 14.7806 2.89999C15.1806 2.89999 15.5806 2.99999 15.8806 3.09999C16.2806 3.29999 16.5806 3.5 16.7806 3.8C17.3806 4.5 17.5806 5.39999 17.5806 6.19999ZM16.4806 6.19999C16.4806 5.59999 16.3806 4.89999 15.9806 4.39999C15.7806 4.19999 15.5806 4.1 15.3806 4C15.1806 3.9 14.8806 3.89999 14.6806 3.89999C14.3806 3.89999 14.1806 3.9 13.9806 4C13.7806 4.1 13.5806 4.29999 13.3806 4.39999C12.9806 4.89999 12.8806 5.59999 12.8806 6.19999C12.8806 6.79999 12.9806 7.4 13.3806 8C13.5806 8.2 13.7806 8.29999 13.9806 8.39999C14.1806 8.49999 14.4806 8.59999 14.6806 8.59999C14.8806 8.59999 15.1806 8.49999 15.3806 8.39999C15.5806 8.29999 15.7806 8.1 15.9806 8C16.3806 7.5 16.5806 6.89999 16.4806 6.19999Z" fill="#C62956"/>
<path d="M24.3806 9.3H23.3806V8.6C23.0806 8.9 22.6806 9.1 22.3806 9.2C22.0806 9.3 21.6806 9.4 21.2806 9.4C20.9806 9.4 20.6806 9.4 20.4806 9.3C20.1806 9.2 19.9806 9 19.7806 8.8C19.3806 8.3 19.1806 7.7 19.2806 7V3H20.3806V6.5C20.3806 6.8 20.3806 7 20.3806 7.3C20.3806 7.5 20.4806 7.7 20.5806 7.9C20.6806 8.1 20.7806 8.2 20.9806 8.3C21.1806 8.4 21.4806 8.4 21.6806 8.4C21.9806 8.4 22.2806 8.3 22.5806 8.2C22.8806 8.1 23.1806 7.9 23.4806 7.7V3.1H24.4806V9.3H24.3806Z" fill="#C62956"/>
<path d="M30.8806 7.6C30.8806 7.9 30.7806 8.1 30.6806 8.4C30.5806 8.6 30.3806 8.9 30.1806 9C29.5806 9.4 28.9806 9.6 28.2806 9.5C27.8806 9.5 27.3806 9.4 26.9806 9.3C26.6806 9.2 26.2806 9.1 25.9806 8.9V7.7H26.0806C26.3806 7.9 26.7806 8.1 27.1806 8.3C27.5806 8.4 27.9806 8.5 28.3806 8.5C28.7806 8.5 29.0806 8.4 29.4806 8.3C29.5806 8.2 29.6806 8.1 29.7806 8C29.8806 7.9 29.8806 7.7 29.8806 7.6C29.8806 7.5 29.8806 7.4 29.8806 7.3C29.8806 7.2 29.7806 7.1 29.6806 7C29.4806 6.8 29.1806 6.7 28.8806 6.7C28.7806 6.7 28.5806 6.6 28.2806 6.6L27.5806 6.5C27.1806 6.4 26.7806 6.2 26.3806 5.9C26.1806 5.6 25.9806 5.2 26.0806 4.9C26.0806 4.7 26.1806 4.4 26.2806 4.2C26.3806 4 26.5806 3.8 26.7806 3.6C26.9806 3.4 27.2806 3.3 27.5806 3.2C27.8806 3.1 28.2806 3 28.6806 3C29.0806 3 29.4806 3 29.8806 3.1C30.1806 3.2 30.4806 3.3 30.8806 3.4V4.5H30.5806C30.2806 4.3 29.9806 4.1 29.5806 4C29.1806 3.9 28.8806 3.8 28.4806 3.8C28.1806 3.8 27.7806 3.9 27.4806 4C27.3806 4.1 27.2806 4.2 27.1806 4.3C27.0806 4.4 27.0806 4.5 27.0806 4.7C27.0806 4.8 27.0806 4.9 27.1806 5C27.1806 5.1 27.2806 5.2 27.3806 5.3C27.5806 5.5 27.8806 5.6 28.1806 5.6C28.3806 5.6 28.5806 5.7 28.7806 5.7L29.3806 5.8C29.7806 5.9 30.1806 6.1 30.4806 6.4C30.5806 6.5 30.6806 6.7 30.7806 6.9C30.8806 7.2 30.8806 7.4 30.8806 7.6Z" fill="#C62956"/>
<path d="M41.5806 6.3H36.9806C36.9806 6.6 37.0806 7 37.1806 7.3C37.2806 7.6 37.4806 7.8 37.6806 8C37.8806 8.2 38.0806 8.3 38.3806 8.4C38.6806 8.5 38.9806 8.5 39.2806 8.5C39.6806 8.5 40.1806 8.4 40.5806 8.2C40.8806 8.1 41.1806 7.9 41.4806 7.7H41.5806V8.8C41.1806 8.9 40.8806 9.1 40.4806 9.2C40.0806 9.3 39.6806 9.4 39.2806 9.4C38.8806 9.4 38.3806 9.4 37.9806 9.2C37.5806 9.1 37.1806 8.8 36.8806 8.5C36.5806 8.2 36.3806 7.8 36.1806 7.4C36.0806 7 35.9806 6.6 35.9806 6.1C35.8806 5.2 36.1806 4.4 36.7806 3.7C37.0806 3.4 37.3806 3.2 37.7806 3C38.1806 2.8 38.5806 2.8 38.9806 2.8C39.3806 2.8 39.6806 2.8 40.0806 3C40.3806 3.1 40.6806 3.3 40.9806 3.6C41.4806 4.2 41.6806 4.9 41.6806 5.7V6.3H41.5806ZM40.5806 5.6C40.5806 5.1 40.4806 4.7 40.1806 4.3C39.9806 4.1 39.7806 4 39.5806 3.9C39.3806 3.8 39.1806 3.8 38.8806 3.8C38.6806 3.8 38.3806 3.8 38.1806 3.9C37.9806 4 37.7806 4.1 37.5806 4.3C37.2806 4.6 37.0806 5.1 36.9806 5.5H40.5806V5.6ZM40.7806 2.2H39.8806L38.8806 0.699997L37.8806 2.1H36.9806L38.2806 0H39.5806L40.7806 2.2Z" fill="#C62956"/>
<path d="M46.3806 9.29999C46.1806 9.39999 45.9806 9.39999 45.7806 9.39999C45.5806 9.39999 45.3806 9.39999 45.1806 9.39999C44.8806 9.39999 44.6806 9.39999 44.3806 9.29999C44.0806 9.19999 43.8806 9.09999 43.6806 8.89999C43.2806 8.39999 43.1806 7.89999 43.1806 7.29999V3.99999H42.4806V3.09999H43.1806V1.29999H44.1806V3.09999H46.3806V3.99999H44.1806V6.79999C44.1806 7.09999 44.1806 7.39999 44.1806 7.59999C44.1806 7.79999 44.2806 7.99999 44.3806 8.09999C44.4806 8.19999 44.5806 8.39999 44.6806 8.39999C44.8806 8.49999 45.0806 8.49999 45.3806 8.49999C45.5806 8.49999 45.7806 8.49999 45.8806 8.39999C45.9806 8.39999 46.1806 8.29999 46.2806 8.29999H46.3806V9.29999Z" fill="#C62956"/>
<path d="M52.8806 6.3H48.2806C48.2806 6.6 48.2806 7 48.4806 7.3C48.5806 7.6 48.7806 7.8 48.9806 8C49.1806 8.2 49.3806 8.29999 49.6806 8.39999C49.9806 8.49999 50.2806 8.5 50.5806 8.5C50.9806 8.5 51.4806 8.39999 51.8806 8.19999C52.1806 8.09999 52.4806 7.89999 52.7806 7.69999H52.8806V8.8C52.4806 8.9 52.1806 9.09999 51.7806 9.19999C51.3806 9.29999 50.9806 9.39999 50.5806 9.39999C49.6806 9.49999 48.7806 9.19999 48.1806 8.59999C47.8806 8.29999 47.6806 7.9 47.4806 7.5C47.3806 7.1 47.2806 6.69999 47.2806 6.19999C47.2806 5.29999 47.5806 4.5 48.1806 3.8C48.4806 3.5 48.7806 3.29999 49.1806 3.09999C49.5806 2.89999 49.9806 2.89999 50.3806 2.89999C50.7806 2.89999 51.0806 2.89999 51.4806 3.09999C51.7806 3.19999 52.0806 3.39999 52.3806 3.69999C52.8806 4.29999 53.0806 5 53.0806 5.8V6.3H52.8806ZM51.8806 5.59999C51.8806 5.09999 51.7806 4.7 51.4806 4.3C51.2806 4.1 51.0806 3.99999 50.8806 3.89999C50.6806 3.79999 50.4806 3.8 50.1806 3.8C49.9806 3.8 49.6806 3.79999 49.4806 3.89999C49.2806 3.99999 49.0806 4.1 48.8806 4.3C48.5806 4.6 48.3806 5.1 48.2806 5.5H51.8806V5.59999Z" fill="#C62956"/>
<path d="M58.8806 7.6C58.8806 7.9 58.7806 8.1 58.6806 8.4C58.5806 8.6 58.3806 8.9 58.1806 9C57.5806 9.4 56.9806 9.6 56.2806 9.5C55.8806 9.5 55.3806 9.4 54.9806 9.3C54.6806 9.2 54.2806 9.1 53.9806 8.9V7.7H54.0806C54.3806 8 54.7806 8.1 55.1806 8.3C55.5806 8.4 55.9806 8.5 56.3806 8.5C56.7806 8.5 57.0806 8.4 57.4806 8.3C57.5806 8.2 57.6806 8.1 57.7806 8C57.8806 7.9 57.8806 7.7 57.8806 7.6C57.8806 7.5 57.8806 7.4 57.8806 7.3C57.8806 7.2 57.7806 7.1 57.6806 7C57.4806 6.8 57.1806 6.7 56.8806 6.7C56.7806 6.7 56.5806 6.6 56.2806 6.6L55.5806 6.5C55.1806 6.4 54.7806 6.2 54.3806 5.9C54.1806 5.6 54.0806 5.2 54.0806 4.9C54.0806 4.7 54.1806 4.4 54.2806 4.2C54.3806 4 54.5806 3.8 54.7806 3.6C54.9806 3.4 55.2806 3.3 55.5806 3.2C55.8806 3.1 56.2806 3 56.6806 3C57.0806 3 57.4806 3 57.8806 3.1C58.1806 3.2 58.4806 3.3 58.8806 3.4V4.5H58.5806C58.2806 4.3 57.9806 4.1 57.5806 4C57.1806 3.9 56.7806 3.8 56.4806 3.8C56.1806 3.8 55.7806 3.9 55.4806 4C55.3806 4.1 55.2806 4.2 55.1806 4.3C55.0806 4.4 55.0806 4.5 55.0806 4.7C55.0806 4.8 55.0806 4.9 55.0806 5C55.0806 5.1 55.1806 5.2 55.2806 5.3C55.4806 5.5 55.7806 5.6 56.0806 5.6C56.2806 5.6 56.4806 5.7 56.7806 5.7L57.3806 5.8C57.7806 5.9 58.1806 6.1 58.4806 6.4C58.7806 6.8 58.8806 7.1 58.8806 7.6Z" fill="#C62956"/>
<path d="M63.1806 11.5H60.2806V10.7H62.1806V1.50002H60.2806V0.700012H63.1806V11.5Z" fill="#C62956"/>
<path d="M40.4863 45.4259C40.2863 45.3259 39.9863 45.3259 39.6863 45.6259C36.7863 49.8259 32.6863 53.0259 27.8863 55.0259C23.4863 56.8259 18.2863 56.7259 19.9863 51.0259C21.4863 46.1259 27.2863 40.5259 31.2863 38.7259C32.1863 38.2259 34.6863 37.2259 34.7863 39.1259C34.8863 40.6259 32.8863 42.6259 31.6863 43.5259C29.1863 45.5259 25.3863 47.7259 23.1863 47.9259C22.1863 48.0259 22.6863 48.9259 23.6863 48.8259C26.6863 48.5259 33.1863 46.0259 35.5863 42.4259C36.8863 40.5259 37.2863 37.1259 34.4863 36.1259C30.1863 34.7259 22.1863 40.7259 18.4863 45.4259C18.3863 45.4259 18.2863 45.5259 18.2863 45.6259C15.9863 48.9259 10.9863 53.4259 8.38626 54.8259C4.48626 57.0259 3.48626 53.4259 3.88626 50.1259C4.08626 49.0259 4.38626 48.0259 4.78626 47.0259C13.2863 40.0259 21.2863 32.1259 26.7863 22.4259C29.1863 18.0259 26.9863 15.6259 23.9863 15.6259C19.3863 15.6259 16.2863 19.7259 13.7863 23.0259C9.38626 28.8259 1.18626 44.9259 0.78626 51.7259C0.68626 54.8259 1.88626 57.1259 5.98626 57.1259C7.48626 57.1259 8.98626 56.5259 10.1863 55.6259C12.1863 54.1259 14.5863 51.9259 16.3863 49.9259C14.6863 56.9259 22.4863 59.0259 28.8863 56.5259C33.7863 54.4259 37.8863 50.9259 40.5863 46.3259C40.8863 45.9259 40.8863 45.6259 40.4863 45.4259ZM7.68626 39.5259C9.28626 36.5259 10.9863 33.0259 11.7863 31.7259C14.6863 26.5259 18.1863 21.6259 22.2863 18.5259C25.2863 16.3259 26.7863 17.8259 24.9863 21.1259C21.3863 28.0259 12.4863 39.7259 5.78626 44.2259C6.38626 42.7259 6.98626 41.1259 7.68626 39.5259Z" fill="#C62956"/>
<path d="M171.086 23.9259C172.586 20.8259 172.886 18.0259 170.186 16.5259L168.886 16.0259C164.286 14.7259 160.486 19.1259 158.186 22.6259C155.186 27.3259 151.286 36.3259 149.886 40.1259L147.886 45.1259H147.686C147.186 45.1259 146.786 44.0259 145.786 44.0259C144.786 44.0259 141.686 44.7259 141.686 45.9259C141.786 46.3259 141.886 46.6259 142.186 46.9259C139.386 50.4259 135.686 53.2259 131.386 54.9259C126.986 56.7259 121.786 56.6259 123.486 50.9259C124.986 46.0259 130.786 40.4259 134.786 38.5259C135.686 38.0259 138.186 37.0259 138.286 38.9259C138.386 40.4259 136.386 42.4259 135.186 43.3259C132.686 45.3259 128.886 47.5259 126.686 47.7259C125.686 47.8259 126.186 48.7259 127.186 48.6259C130.286 48.3259 136.686 45.8259 139.086 42.2259C140.386 40.3259 140.786 36.9259 137.986 35.9259C133.686 34.5259 125.686 40.5259 121.986 45.2259C121.886 45.2259 121.786 45.3259 121.686 45.4259C118.886 49.1259 115.486 52.2259 111.586 54.8259C109.386 55.9259 107.986 54.4259 108.486 51.5259C108.886 49.2259 109.586 46.9259 110.686 44.8259C111.686 42.9259 113.986 39.9259 113.786 37.6259C113.686 35.5259 111.086 35.6259 107.986 38.0259C104.286 40.9259 98.3862 47.3259 95.4862 50.8259C96.5862 47.3259 97.8863 43.8259 99.3863 40.4259C105.786 35.3259 114.986 28.5259 118.586 22.2259C120.186 19.4259 120.486 16.4259 116.586 15.6259C107.686 13.7259 98.6862 33.9259 97.5863 36.4259C97.2863 37.0259 96.9863 37.6259 96.5863 38.1259L96.1863 38.0259C94.7863 37.3259 93.9862 39.1259 95.2862 39.8259C94.1862 41.4259 92.6863 43.1259 91.1863 45.0259L91.0863 45.1259C90.8862 45.4259 90.6862 45.6259 90.4862 45.9259C90.2862 46.1259 90.1862 46.3259 89.9862 46.5259V46.6259C83.4862 54.4259 72.6863 58.0259 65.0863 57.7259C57.8863 57.6259 53.4863 53.6259 56.3863 44.7259C61.2863 29.2259 78.6863 16.6259 85.8863 17.7259C89.5863 18.3259 89.3862 22.1259 87.6862 25.2259C84.3862 31.5259 77.7862 35.3259 70.7862 35.9259C68.9862 36.0259 68.2863 38.2259 70.4863 38.0259C77.2863 37.4259 91.1863 29.5259 91.3863 21.7259C91.4863 19.0259 89.6863 16.6259 85.9863 16.1259C72.6863 14.1259 56.5862 29.5259 53.1862 43.5259C50.5862 54.4259 56.8862 59.3259 65.1862 59.4259C70.4862 59.4259 75.5862 58.1259 80.2862 55.7259C83.9862 53.8259 87.1862 51.3259 89.9862 48.3259C90.0862 48.3259 90.0863 48.2259 90.1863 48.1259C91.9863 46.1259 94.7863 42.9259 95.6863 41.7259C93.7863 46.7259 90.6862 55.6259 90.2862 56.6259C89.5862 57.9259 93.1863 56.3259 93.8863 55.9259C95.1863 55.2259 100.886 46.2259 104.686 42.7259C109.586 38.4259 109.986 40.0259 108.786 42.2259C107.386 44.7259 105.486 48.2259 105.186 51.0259C104.986 52.1259 104.986 53.2259 105.286 54.2259C106.686 58.2259 111.686 56.6259 113.886 55.0259C115.886 53.6259 118.086 51.4259 119.886 49.4259C118.186 56.4259 125.986 58.6259 132.386 56.0259C136.786 54.1259 140.586 51.0259 143.286 47.1259C143.386 47.1259 143.486 47.1259 143.586 47.1259C144.786 47.1259 145.886 47.0259 147.086 46.8259C142.886 57.5259 135.286 76.4259 134.586 77.9259C133.586 79.9259 137.586 78.3259 138.686 77.7259C139.686 77.1259 139.886 76.0259 141.486 71.8259C142.186 70.0259 140.986 70.7259 142.986 65.0259C144.986 59.6259 148.086 51.2259 149.986 46.4259C154.186 45.8259 158.986 45.1259 160.186 44.8259C162.986 44.0259 161.286 43.7259 160.186 43.7259C157.786 43.7259 155.286 44.0259 152.986 44.2259C159.586 39.2259 168.586 29.3259 171.086 23.9259ZM114.386 18.5259C117.786 15.9259 118.786 17.9259 117.086 21.1259C114.086 26.8259 106.286 33.9259 100.886 37.4259C104.386 29.7259 108.286 23.1259 114.386 18.5259ZM150.686 44.8259C150.786 44.4259 150.986 44.1259 151.186 43.7259C151.386 43.1259 153.786 37.5259 156.786 31.9259C159.386 27.2259 163.786 20.8259 166.486 18.8259C170.586 15.6259 171.186 19.5259 169.186 23.0259C165.586 29.3259 157.486 39.8259 150.686 44.8259Z" fill="#C62956"/>
</g>
<defs>
<clipPath id="clip0_5_61">
<rect width="171.439" height="78.9008" fill="white" transform="translate(0.780579)"/>
</clipPath>
</defs>
</svg>
